Coordinates
version=1
nRows=26
nColumns=24
inDegrees=yes

Units are S.I. units (second, meters, Newtons, ...)
Angles are in degrees.

endheader
time	pelvis_tilt	pelvis_list	pelvis_rotation	pelvis_tx	pelvis_ty	pelvis_tz	hip_flexion_r	hip_adduction_r	hip_rotation_r	knee_angle_r	ankle_angle_r	subtalar_angle_r	mtp_angle_r	hip_flexion_l	hip_adduction_l	hip_rotation_l	knee_angle_l	ankle_angle_l	subtalar_angle_l	mtp_angle_l	lumbar_extension	lumbar_bending	lumbar_rotation
      1.16000000	     -2.35493898	      2.74104022	      3.97727662	      0.07752822	      0.93882826	     -0.01656523	     24.59881758	     -5.32405552	     -2.38692386	      1.17930139	      1.66172814	      0.00000000	      0.00000000	     -5.19686164	      7.24157354	      2.88878283	    -15.43178954	     23.72136305	      0.00000000	      0.00000000	     -6.37867383	     -0.87658220	      0.07001739
      1.17000000	     -2.43612710	      2.64018500	      4.53345580	      0.07855377	      0.93746658	     -0.01663040	     24.69607088	     -5.25962957	     -1.80125630	      0.39902334	      1.33923990	      0.00000000	      0.00000000	     -5.69012108	      6.99058924	      3.17163612	    -15.46284663	     23.79037237	      0.00000000	      0.00000000	     -6.28375335	     -0.63645622	     -0.18123487
      1.18000000	     -2.48717000	      2.47084323	      4.99990090	      0.07965022	      0.93613984	     -0.01662253	     24.96594169	     -5.06874011	     -1.36545045	     -0.84809102	      0.96959852	      0.00000000	      0.00000000	     -6.23163185	      6.68389588	      3.67757671	    -15.46976142	     23.99562204	      0.00000000	      0.00000000	     -6.22013292	     -0.32064071	     -0.24713417
      1.19000000	     -2.58316227	      2.31659755	      5.56073482	      0.08098821	      0.93487599	     -0.01663035	     25.11474440	     -4.93111936	     -0.79916675	     -1.88033183	      0.49303517	      0.00000000	      0.00000000	     -6.72675475	      6.35832785	      4.00275926	    -15.46485992	     24.04465730	      0.00000000	      0.00000000	     -6.06651197	     -0.01200060	     -0.52939686
      1.20000000	     -2.75935130	      2.09971642	      5.98098135	      0.08239557	      0.93352952	     -0.01648482	     25.59566069	     -4.66321636	     -0.43833366	     -3.37308830	     -0.09730648	      0.00000000	      0.00000000	     -7.14398485	      5.98991095	      4.37932769	    -15.44106786	     24.13366543	      0.00000000	      0.00000000	     -5.80952791	      0.34973893	     -0.61125582
      1.21000000	     -3.09654850	      1.90427539	      6.39944898	      0.08389803	      0.93209035	     -0.01617110	     26.23573658	     -4.42316267	      0.07249297	     -4.86080838	     -0.64262187	      0.00000000	      0.00000000	     -7.34796689	      5.63921956	      4.62456184	    -15.49070456	     24.09909805	      0.00000000	      0.00000000	     -5.35632393	      0.64495160	     -0.74739105
      1.22000000	     -3.22504846	      1.68723205	      6.87366846	      0.08550623	      0.93117078	     -0.01587930	     26.47770802	     -4.17718561	      0.62825349	     -6.04228746	     -1.27609012	      0.00000000	      0.00000000	     -7.80133020	      5.21421244	      4.96426392	    -15.46234644	     23.94191090	      0.00000000	      0.00000000	     -5.14623391	      0.99673312	     -0.93473441
      1.23000000	     -3.38219728	      1.44525258	      7.23389203	      0.08726934	      0.93039355	     -0.01546050	     26.83416742	     -3.85966979	      1.10282175	     -7.36463887	     -1.87916005	      0.00000000	      0.00000000	     -8.21930049	      4.77671983	      5.20787813	    -15.43490659	     23.68652378	      0.00000000	      0.00000000	     -4.87283635	      1.36776390	     -1.09331010
      1.24000000	     -4.09045933	      1.30637672	      7.30048024	      0.08900685	      0.92887760	     -0.01466498	     28.28268195	     -3.55591537	      1.81008467	     -9.64822603	     -1.87261152	      0.00000000	      0.00000000	     -7.97471687	      4.55444059	      5.09386585	    -15.56119806	     23.22315357	      0.00000000	      0.00000000	     -3.97670008	      1.53452683	     -0.95178892
      1.25000000	     -4.25209292	      1.03651219	      7.55058905	      0.09085340	      0.92847940	     -0.01401101	     28.74315899	     -3.16233077	      2.27814375	    -11.18181098	     -2.18369025	      0.00000000	      0.00000000	     -8.30357072	      4.08253353	      5.29199669	    -15.65484909	     22.71219171	      0.00000000	      0.00000000	     -3.70335706	      1.92465678	     -1.03124270
      1.26000000	     -4.83891142	      0.99649704	      7.60870395	      0.09261065	      0.92759701	     -0.01315207	     29.96715293	     -2.92347056	      3.21408772	    -13.39639290	     -1.66922016	      0.00000000	      0.00000000	     -8.14066504	      3.93810860	      5.24836679	    -15.84826608	     22.01918102	      0.00000000	      0.00000000	     -2.98050965	      1.99991342	     -0.99917402
      1.27000000	     -5.21826823	      0.87635417	      7.67762243	      0.09455523	      0.92728913	     -0.01221823	     30.80033693	     -2.57890459	      3.98161342	    -15.32244407	     -1.24692493	      0.00000000	      0.00000000	     -8.15128701	      3.66638283	      5.27638393	    -16.09939165	     21.18160879	      0.00000000	      0.00000000	     -2.47046866	      2.18177483	     -1.00111968
      1.28000000	     -5.50775612	      0.73096730	      7.70195787	      0.09660586	      0.92736262	     -0.01117377	     31.44144285	     -2.16008109	      4.79287160	    -17.11370576	     -0.62472376	      0.00000000	      0.00000000	     -8.22851057	      3.34357685	      5.25027561	    -16.36577927	     20.13349451	      0.00000000	      0.00000000	     -2.05296392	      2.40354422	     -1.00491302
      1.29000000	     -5.66696681	      0.49337346	      7.72902900	      0.09878140	      0.92789346	     -0.01005791	     31.76352297	     -1.63341531	      5.48879119	    -18.59424316	      0.08865060	      0.00000000	      0.00000000	     -8.37172683	      2.88800029	      5.18803767	    -16.71417672	     18.89438056	      0.00000000	      0.00000000	     -1.75927218	      2.74401737	     -1.04699361
      1.30000000	     -5.71104887	      0.24331730	      7.80571851	      0.10085550	      0.92884919	     -0.00905096	     31.76470672	     -1.11350428	      6.23125013	    -19.69777389	      0.38729588	      0.00000000	      0.00000000	     -8.53301661	      2.42600660	      5.53303665	    -17.22347525	     17.87433252	      0.00000000	      0.00000000	     -1.60773904	      3.12740704	     -1.18702160
      1.31000000	     -5.98440678	      0.22023545	      7.64768257	      0.10326218	      0.92957496	     -0.00760535	     32.14376092	     -0.69287238	      6.87765533	    -21.21221132	      2.04126045	      0.00000000	      0.00000000	     -8.49008714	      2.20105335	      5.11271446	    -17.64055944	     15.81576126	      0.00000000	      0.00000000	     -1.18303940	      3.18676293	     -1.05526327
      1.32000000	     -6.03604488	      0.10345435	      7.62458436	      0.10543661	      0.93086820	     -0.00629277	     32.03843616	     -0.23918377	      7.46763865	    -22.19432189	      2.78714181	      0.00000000	      0.00000000	     -8.47358649	      1.86646190	      5.28841566	    -18.39199697	     14.18187758	      0.00000000	      0.00000000	     -1.02621378	      3.38258011	     -1.14966639
      1.33000000	     -6.01246860	     -0.05970955	      7.63932574	      0.10756661	      0.93241074	     -0.00503821	     31.70660563	      0.22038837	      7.95008658	    -22.90052912	      3.41780355	      0.00000000	      0.00000000	     -8.39625408	      1.47901503	      5.52649336	    -19.34126173	     12.56057474	      0.00000000	      0.00000000	     -0.95079631	      3.64694307	     -1.22243560
      1.34000000	     -6.05121579	     -0.12482789	      7.70858001	      0.10990988	      0.93408687	     -0.00370100	     31.26698072	      0.49730990	      8.02780674	    -23.33516843	      4.60833036	      0.00000000	      0.00000000	     -8.24930122	      1.12497898	      5.40195470	    -20.18513958	     10.15750993	      0.00000000	      0.00000000	     -0.76681203	      3.74612570	     -1.31053030
      1.35000000	     -5.96225101	     -0.17475410	      7.65648628	      0.11188701	      0.93592026	     -0.00244803	     30.67030122	      0.80128903	      8.19628815	    -23.65009943	      5.23298070	      0.00000000	      0.00000000	     -7.98696568	      0.88268801	      5.61141469	    -21.51136078	      8.27581024	      0.00000000	      0.00000000	     -0.79249328	      3.89215896	     -1.28493529
      1.36000000	     -5.92939593	     -0.22240483	      7.87509061	      0.11407232	      0.93792254	     -0.00135526	     29.92149629	      0.90821977	      7.85744269	    -23.61928357	      6.18784072	      0.00000000	      0.00000000	     -7.68184458	      0.52178063	      5.60161130	    -22.60039155	      5.56484845	      0.00000000	      0.00000000	     -0.67867129	      3.97914410	     -1.53849510
      1.37000000	     -5.82532744	     -0.23406213	      8.04185372	      0.11589424	      0.93996114	     -0.00028201	     29.08507794	      0.98647470	      7.49708417	    -23.50009724	      6.84042617	      0.00000000	      0.00000000	     -7.21234620	      0.24236778	      5.68287699	    -24.10479741	      3.17315532	      0.00000000	      0.00000000	     -0.70447128	      4.04224275	     -1.63566751
      1.38000000	     -5.72340528	     -0.23457870	      8.24924539	      0.11749996	      0.94200064	      0.00066765	     28.19817577	      0.99742274	      6.96133006	    -23.24204892	      7.39459918	      0.00000000	      0.00000000	     -6.59312756	     -0.01968816	      5.75129361	    -25.79575763	      0.80509158	      0.00000000	      0.00000000	     -0.74107276	      4.09340876	     -1.71636748
      1.39000000	     -5.62903470	     -0.22168595	      8.48785526	      0.11886342	      0.94395996	      0.00153987	     27.30570243	      0.96521767	      6.33652628	    -22.93127992	      7.88407498	      0.00000000	      0.00000000	     -5.80891935	     -0.26722226	      5.76617622	    -27.68928723	     -1.47284108	      0.00000000	      0.00000000	     -0.79162326	      4.12575506	     -1.76214601
      1.40000000	     -5.55812785	     -0.20974186	      8.77132464	      0.11994035	      0.94580195	      0.00234354	     26.43218702	      0.90290887	      5.60646083	    -22.56464902	      8.30660682	      0.00000000	      0.00000000	     -4.85642990	     -0.52383804	      5.72830156	    -29.74929338	     -3.59331195	      0.00000000	      0.00000000	     -0.83574076	      4.14380221	     -1.77652420
      1.41000000	     -5.49231269	     -0.19016233	      9.03842746	      0.12071042	      0.94750298	      0.00302066	     25.58973178	      0.83333663	      4.89497142	    -22.21531267	      8.69587596	      0.00000000	      0.00000000	     -3.76016234	     -0.75373436	      5.60244636	    -31.98184213	     -5.45490305	      0.00000000	      0.00000000	     -0.90129289	      4.16929444	     -1.76407564
